<svg width="190" height="172" viewBox="0 0 190 172" fill="none" xmlns="http://www.w3.org/2000/svg">
<g filter="url(#filter0_dd_1417_152909)">
<path d="M144.367 63.1588C130.224 54.9714 110.226 50.318 88.8154 51.3935C86.8999 51.4923 85.0062 51.624 83.1454 51.8106C47.5598 55.2677 22.0336 74.0899 25.2736 95.3486C26.1602 101.187 29.1594 106.653 33.7677 111.493L30.5496 128.581C30.1993 130.436 31.3377 132.269 33.5817 133.575C33.7896 133.695 34.0085 133.816 34.2494 133.926C36.9421 135.243 40.5762 135.693 43.9476 135.122L72.3416 130.326C81.3502 132.137 91.1141 132.905 101.174 132.4C137.766 130.579 165.274 112.722 164.989 91.7488C164.978 90.6513 164.88 89.5428 164.715 88.4343C163.194 78.5019 155.652 69.6999 144.356 63.1698" fill="#4A154B"/>
<path d="M144.367 36.5552C130.225 28.3678 110.215 23.7253 88.8157 24.7899C86.9001 24.8887 85.0064 25.0204 83.1456 25.207C47.56 28.6641 22.0338 47.4863 25.2738 68.745C26.1605 74.5837 29.1597 80.0493 33.768 84.8893L30.5498 101.977C30.1996 103.832 31.338 105.665 33.5819 106.971C33.7899 107.092 34.0088 107.213 34.2496 107.322C36.9423 108.639 40.5764 109.089 43.9478 108.519L72.3419 103.722C81.3505 105.533 91.1143 106.302 101.174 105.797C137.766 103.975 165.274 86.1185 164.989 65.1452C164.978 64.0477 164.88 62.9392 164.716 61.8307C163.194 51.8983 155.652 43.0963 144.356 36.5661" fill="#F9EDFF"/>
<path d="M101.185 130.535C137.777 128.713 165.285 110.856 165 89.883V65.1453C165.285 86.1186 137.788 103.975 101.185 105.797C91.1251 106.291 81.3613 105.533 72.3527 103.723V128.46C81.3613 130.271 91.1251 131.039 101.185 130.535Z" fill="#83388A"/>
<path d="M43.9585 108.519C40.5871 109.089 36.9421 108.639 34.2603 107.322C34.0304 107.213 33.8115 107.092 33.5926 106.971C31.8631 105.973 30.8014 104.656 30.5605 103.262V114.083C30.5605 114.083 30.5824 105.819 30.5934 105.83V126.551L30.5605 126.715V127.999C30.8123 129.393 31.8741 130.71 33.5926 131.709C33.8006 131.83 34.0195 131.95 34.2603 132.06C36.953 133.377 40.5871 133.827 43.9585 133.257L72.3526 128.46V103.723L43.9585 108.519Z" fill="#A350AF"/>
<path d="M30.5606 101.978L33.7787 84.8894C29.1595 80.0494 26.1712 74.5838 25.2846 68.7451C25.0985 67.5488 25.0219 66.3635 25.0219 65.1892H25L25.0547 88.6429C25.0109 89.5428 25 90.4538 25.0547 91.3757V91.4306C25.0985 92.111 25.1751 92.8024 25.2737 93.4829C25.9304 97.829 27.7584 101.956 30.5496 105.786V103.262C30.473 102.834 30.473 102.406 30.5496 101.978H30.5606Z" fill="#83388A"/>
<path d="M74.8812 65.1783C74.8922 67.6148 71.5098 69.5793 67.3284 69.5793C65.2377 69.5793 63.3331 69.0854 61.9539 68.2843C60.5747 67.4831 59.7209 66.3856 59.7209 65.1674C59.699 62.7419 63.0923 60.7664 67.2737 60.7664C69.3644 60.7664 71.2581 61.2602 72.6373 62.0614C74.0165 62.8626 74.8703 63.9601 74.8812 65.1783ZM100.342 62.0614C98.9625 61.2602 97.0689 60.7773 94.9782 60.7773C90.7858 60.7773 87.4035 62.7528 87.4254 65.1783C87.4254 66.3966 88.2901 67.4941 89.6584 68.2952C91.0266 69.0964 92.9313 69.5793 95.022 69.5793C99.2033 69.5793 102.597 67.6148 102.575 65.1783C102.575 63.9601 101.71 62.8626 100.342 62.0614ZM128.046 62.0614C126.667 61.2602 124.773 60.7773 122.683 60.7773C118.49 60.7773 115.108 62.7419 115.13 65.1783C115.13 66.3966 115.995 67.4941 117.363 68.2952C118.731 69.0964 120.636 69.5793 122.726 69.5793C126.919 69.5793 130.301 67.6148 130.279 65.1783C130.279 63.9601 129.414 62.8626 128.046 62.0614Z" fill="#83388A"/>
</g>
<defs>
<filter id="filter0_dd_1417_152909" x="0.99646" y="12.6365" width="188.006" height="158.729" filterUnits="userSpaceOnUse" color-interpolation-filters="sRGB">
<feFlood flood-opacity="0" result="BackgroundImageFix"/>
<feColorMatrix in="SourceAlpha" type="matrix" values="0 0 0 0 0 0 0 0 0 0 0 0 0 0 0 0 0 0 127 0" result="hardAlpha"/>
<feOffset dy="12"/>
<feGaussianBlur stdDeviation="12"/>
<feComposite in2="hardAlpha" operator="out"/>
<feColorMatrix type="matrix" values="0 0 0 0 0.635294 0 0 0 0 0.313726 0 0 0 0 0.686275 0 0 0 0.2 0"/>
<feBlend mode="normal" in2="BackgroundImageFix" result="effect1_dropShadow_1417_152909"/>
<feColorMatrix in="SourceAlpha" type="matrix" values="0 0 0 0 0 0 0 0 0 0 0 0 0 0 0 0 0 0 127 0" result="hardAlpha"/>
<feOffset dy="2"/>
<feGaussianBlur stdDeviation="2"/>
<feComposite in2="hardAlpha" operator="out"/>
<feColorMatrix type="matrix" values="0 0 0 0 0.635294 0 0 0 0 0.313726 0 0 0 0 0.686275 0 0 0 0.25 0"/>
<feBlend mode="normal" in2="effect1_dropShadow_1417_152909" result="effect2_dropShadow_1417_152909"/>
<feBlend mode="normal" in="SourceGraphic" in2="effect2_dropShadow_1417_152909" result="shape"/>
</filter>
</defs>
</svg>
